<svg width="24" height="24" viewBox="0 0 24 24" fill="none" xmlns="http://www.w3.org/2000/svg">
<path d="M21.9999 17.2C21.9999 19.85 19.8499 22 17.1999 22C15.7799 22 14.5099 21.38 13.6299 20.4C12.8699 19.55 12.3999 18.43 12.3999 17.2C12.3999 14.55 14.5499 12.4 17.1999 12.4C18.5699 12.4 19.8099 12.98 20.6899 13.91C20.6799 13.91 20.6799 13.91 20.6899 13.92C21.4999 14.78 21.9999 15.93 21.9999 17.2Z" stroke="#101426" stroke-width="1.5" stroke-miterlimit="10" stroke-linecap="round" stroke-linejoin="round"/>
<path d="M18.4802 18.54L15.9502 16" stroke="#101426" stroke-width="1.5" stroke-miterlimit="10" stroke-linecap="round" stroke-linejoin="round"/>
<path d="M18.45 16.03L15.9199 18.57" stroke="#101426" stroke-width="1.5" stroke-miterlimit="10" stroke-linecap="round" stroke-linejoin="round"/>
<path d="M22 8.69C22 10.66 21.49 12.4 20.69 13.91C19.81 12.98 18.57 12.4 17.2 12.4C14.55 12.4 12.4 14.55 12.4 17.2C12.4 18.43 12.87 19.55 13.63 20.4C13.26 20.57 12.92 20.71 12.62 20.81C12.28 20.93 11.72 20.93 11.38 20.81C8.48 19.82 2 15.69 2 8.69C2 5.6 4.49 3.09998 7.56 3.09998C9.37 3.09998 10.99 3.98002 12 5.33002C13.01 3.98002 14.63 3.09998 16.44 3.09998C19.51 3.09998 22 5.6 22 8.69Z" stroke="#101426" stroke-width="1.5" stroke-linecap="round" stroke-linejoin="round"/>
</svg>
